<?xml version="1.0" standalone="no"?><!DOCTYPE svg PUBLIC "-//W3C//DTD SVG 1.1//EN" "http://www.w3.org/Graphics/SVG/1.1/DTD/svg11.dtd"><svg t="1561520238258" class="icon" viewBox="0 0 1024 1024" version="1.1" xmlns="http://www.w3.org/2000/svg" p-id="3276" xmlns:xlink="http://www.w3.org/1999/xlink" width="64" height="64"><defs><style type="text/css"></style></defs><path d="M512 954.181818a42.030545 42.030545 0 0 0 30.766545-13.684363c182.085818-197.306182 318.324364-394.333091 318.324364-518.190546C861.090909 227.886545 704.465455 69.818182 512 69.818182S162.909091 227.886545 162.909091 422.306909c0 123.810909 135.959273 320.512 318.277818 518.283636A42.309818 42.309818 0 0 0 512 954.181818z m0 46.545455a88.901818 88.901818 0 0 1-64.977455-28.532364C255.394909 764.276364 116.363636 563.2 116.363636 422.306909 116.363636 202.24 293.701818 23.272727 512 23.272727c218.298182 0 395.636364 178.967273 395.636364 399.034182 0 140.939636-139.310545 342.434909-330.658909 549.748364-16.756364 18.245818-40.401455 28.672-64.977455 28.672z" fill="#1f89b5" p-id="3277"></path><path d="M512 512c76.939636 0 139.636364-62.696727 139.636364-139.636364s-62.696727-139.636364-139.636364-139.636363-139.636364 62.696727-139.636364 139.636363 62.696727 139.636364 139.636364 139.636364z m0 46.545455c-102.632727 0-186.181818-83.549091-186.181818-186.181819s83.549091-186.181818 186.181818-186.181818 186.181818 83.549091 186.181818 186.181818-83.549091 186.181818-186.181818 186.181819z" fill="#1f89b5" p-id="3278"></path></svg>
