<?xml version="1.0" standalone="no"?><!DOCTYPE svg PUBLIC "-//W3C//DTD SVG 1.1//EN" "http://www.w3.org/Graphics/SVG/1.1/DTD/svg11.dtd"><svg t="1561450593292" class="icon" viewBox="0 0 1024 1024" version="1.1" xmlns="http://www.w3.org/2000/svg" p-id="2824" xmlns:xlink="http://www.w3.org/1999/xlink" width="64" height="64"><defs><style type="text/css"></style></defs><path d="M816.032 413.923L690.963 258.18c-12.494-15.912-32.973-26.151-53.423-26.151H385.132c-20.479 0-39.794 9.105-53.437 26.151l-125.07 155.744c-21.599 26.181-19.33 64.826 3.418 89.843l253.542 268.327 3.403 3.403c12.509 11.374 29.555 18.181 46.601 18.181h2.284c18.195-1.135 35.242-7.94 47.751-21.584l247.854-267.193c23.885-26.151 25.019-64.797 4.554-90.978z m-37.525 59.124L530.666 740.24c-4.566 4.568-10.239 6.837-15.941 6.837-5.672 0-11.359-2.269-15.912-5.703L244.136 471.928c-7.941-7.971-7.941-20.479-1.135-29.555L366.937 286.6c4.553-5.672 11.359-9.105 18.196-9.105H637.54c6.807 0 13.628 3.433 18.182 9.105l125.069 155.773c5.687 9.076 5.687 21.584-2.284 30.674z" p-id="2825" fill="#ffffff"></path><path d="M631.839 460.554L513.59 586.766l-121.651-128.48c-9.09-9.105-22.733-10.239-32.958-1.135-9.105 7.941-9.105 22.734-1.134 31.809l122.787 129.629 2.269 2.27c18.195 17.075 46.615 15.912 64.812-2.27L665.96 490.124c7.942-9.105 7.942-23.897-1.134-31.838-10.239-7.972-23.883-6.837-32.987 2.268z" p-id="2826" fill="#ffffff"></path><path d="M511.038 1023.248C229.598 1023.248 0.653 794.305 0.653 512.842c0-281.44 228.944-510.384 510.385-510.384 281.439 0 510.385 228.944 510.385 510.384 0 281.463-228.945 510.406-510.385 510.406z m0-985.623c-262.021 0-475.217 213.211-475.217 475.217 0 262.028 213.196 475.24 475.217 475.24 262.021 0 475.217-213.212 475.217-475.24 0-262.006-213.195-475.217-475.217-475.217z" p-id="2827" fill="#ffffff"></path></svg>